<?xml version="1.0" encoding="UTF-8"?>
<svg viewBox="0 0 500 500" xmlns="http://www.w3.org/2000/svg">
 <path d="m227 492.41-12.802-1.4877c-67.018-7.8056-128.18-46.051-169.41-105.93-28.773-41.791-42.275-90.166-40.471-145 1.2305-37.397 8.4574-67.549 23.609-98.5 28.037-57.273 81.755-104.46 141.57-124.36 25.511-8.4873 49.41-12.139 79.424-12.137 58.151 0.00425 108.38 17.407 151.66 52.545 12.197 9.9028 34.179 32.654 43.478 44.999 32.913 43.692 47.94 89.768 47.94 146.99 0 30.074-3.5189 52.939-12.153 78.968-12.071 36.391-31.192 66.082-61.501 95.5-38.621 37.486-80.331 58.444-132.35 66.499-9.9966 1.5481-50.729 2.8698-59 1.9144zm36-49.422c46.799-4.0359 85.947-21.914 120.37-54.972 38.791-37.25 58.628-84.288 58.628-139.02 0-21.072-2.089-36.279-7.761-56.497-13.425-47.853-51.713-93.794-98.217-117.85-27.862-14.411-55.133-20.775-89.022-20.775-52.621 0-96.263 17.358-134.75 53.594-36.881 34.727-57.362 78.03-60.133 127.14-3.371 59.746 14.503 108.3 55.278 150.17 17.542 18.013 32.686 29.199 53.101 39.224 31.768 15.601 66.704 22.071 102.5 18.984zm-33.586-25.418c-5.5522-2.8264-10.318-8.577-12.393-14.955-1.8337-5.6354-0.88475-18.11 1.7586-23.119 1.1611-2.2 22.34-26.275 47.064-53.5l44.953-49.5-101.65-0.5-101.65-0.5-4.0968-2.1922c-5.2911-2.8312-13.906-12.271-15.439-16.918-3.4974-10.597 4.8617-28.594 15.81-34.037 3.5332-1.7567 8.9864-1.8787 105.11-2.3528l101.38-0.5-48.162-50.5c-52.587-55.139-53.44-56.208-53.44-66.941 0-10.334 7.4277-20.84 18.287-25.868 7.4606-3.4538 17.635-3.5359 24.322-0.19622 6.5803 3.2864 145.73 145.11 149.32 152.19 3.5372 6.9804 5.0279 18.844 3.5171 27.992-2.0609 12.479-3.3225 14.282-26.393 37.718-134.34 136.46-121.7 124.78-136.05 125.77-6.3065 0.43822-7.7782 0.18708-12.253-2.0911z"/>
</svg>
