<?xml version="1.0" encoding="UTF-8"?>
<svg width="700pt" height="700pt" version="1.1" viewBox="0 0 700 700" xmlns="http://www.w3.org/2000/svg">
 <path d="m350 0c-74.262 0-145.48 29.5-197.99 82.012-52.512 52.508-82.012 123.73-82.012 197.99s29.5 145.48 82.012 197.99c52.508 52.512 123.73 82.012 197.99 82.012s145.48-29.5 197.99-82.012c52.512-52.508 82.012-123.73 82.012-197.99 0-49.148-12.938-97.434-37.512-140-24.578-42.566-59.922-77.91-102.49-102.49-42.566-24.574-90.852-37.512-140-37.512zm-108.01 120h213.55c12.82 0 23.203 10.383 23.203 23.203v213.59c0 12.66-10.172 22.887-22.773 23.125l24.102 45.391c1.6406 3.0781 1.5469 6.8242-0.23438 9.8438-1.8203 3-5.0742 4.8438-8.5938 4.8438h-242.5c-3.6016 0-6.8906-1.9375-8.6719-5.0391-1.7812-3.1211-1.7422-6.9609 0.078125-10.039l26.484-44.922h-4.6484c-12.82 0-23.242-10.402-23.242-23.203v-213.59c0-12.82 10.422-23.203 23.242-23.203zm8.2812 60c-6.3594 0-11.523 5.1641-11.523 11.523v56.602c0 6.5586 5.3164 11.875 11.875 11.875h72.305c8.7383 0 15.84-7.082 15.82-15.82v-48.359c0-8.7383-7.082-15.82-15.82-15.82zm124.3 0c-8.7383 0-15.82 7.082-15.82 15.82v48.359c0 8.7383 7.082 15.82 15.82 15.82h72.656c6.3594 0 11.523-5.1445 11.523-11.523v-52.656c0-8.7383-7.082-15.82-15.82-15.82zm44.18 119.88c-11.039 0-20 8.9609-20 20 0 11.039 8.9609 20 20 20s20-8.9609 20-20c0-11.039-8.9609-20-20-20zm-140 0.11719c-11.039 0-20 8.9609-20 20s8.9609 20 20 20 20-8.9609 20-20-8.9609-20-20-20zm-8.8672 80-23.594 40h21.523l13.398-40zm32.383 0-13.359 40h29.844v-40zm36.484 0v40h20v-40zm40 0v40h33.242l-17.266-40zm37.734 0 17.266 40h20.859l-21.25-40z" fill-rule="evenodd"/>
</svg>
